<svg xmlns="http://www.w3.org/2000/svg" xmlns:xlink="http://www.w3.org/1999/xlink" viewBox="0,0,256,256" width="48px" height="48px" fill-rule="nonzero"><defs><linearGradient x1="7.172" y1="4.172" x2="22.828" y2="19.828" gradientUnits="userSpaceOnUse" id="color-1"><stop offset="0" stop-color="#ffffff" stop-opacity="0.6"></stop><stop offset="1" stop-color="#ffffff" stop-opacity="0.30196"></stop></linearGradient><linearGradient x1="7.172" y1="4.172" x2="22.828" y2="19.828" gradientUnits="userSpaceOnUse" id="color-2"><stop offset="0" stop-color="#ffffff" stop-opacity="0.6"></stop><stop offset="0.493" stop-color="#ffffff" stop-opacity="0"></stop><stop offset="0.997" stop-color="#ffffff" stop-opacity="0.30196"></stop></linearGradient><linearGradient x1="2.172" y1="9.172" x2="7.828" y2="14.828" gradientUnits="userSpaceOnUse" id="color-3"><stop offset="0" stop-color="#ffffff" stop-opacity="0.70196"></stop><stop offset="0.519" stop-color="#da291c"></stop><stop offset="1" stop-color="#ffffff" stop-opacity="0.54902"></stop></linearGradient><linearGradient x1="15.172" y1="16.172" x2="20.828" y2="21.828" gradientUnits="userSpaceOnUse" id="color-4"><stop offset="0" stop-color="#ffffff" stop-opacity="0.70196"></stop><stop offset="0.519" stop-color="#da291c"></stop><stop offset="1" stop-color="#ffffff" stop-opacity="0.54902"></stop></linearGradient><linearGradient x1="15.172" y1="2.172" x2="20.828" y2="7.828" gradientUnits="userSpaceOnUse" id="color-5"><stop offset="0" stop-color="#ffffff" stop-opacity="0.70196"></stop><stop offset="0.519" stop-color="#da291c"></stop><stop offset="1" stop-color="#ffffff" stop-opacity="0.54902"></stop></linearGradient></defs><g fill="none" fill-rule="nonzero" stroke="none" stroke-width="1" stroke-linecap="butt" stroke-linejoin="miter" stroke-miterlimit="10" stroke-dasharray="" stroke-dashoffset="0" font-family="none" font-weight="none" font-size="none" text-anchor="none" style="mix-blend-mode: normal"><g transform="scale(10.66667,10.66667)"><path d="M18,15c-0.128,0 -0.248,0.026 -0.373,0.038l-2.169,-3.038l2.17,-3.038v0c0.124,0.012 0.244,0.038 0.372,0.038c2.209,0 4,-1.791 4,-4c0,-2.209 -1.791,-4 -4,-4c-2.209,0 -4,1.791 -4,4c0,0.59 0.135,1.145 0.364,1.649l-2.393,3.351h-3.526v0c-0.693,-1.191 -1.968,-2 -3.445,-2c-2.209,0 -4,1.791 -4,4c0,2.209 1.791,4 4,4c1.477,0 2.753,-0.81 3.445,-2v0h3.526l2.393,3.351c-0.229,0.504 -0.364,1.059 -0.364,1.649c0,2.209 1.791,4 4,4c2.209,0 4,-1.791 4,-4c0,-2.209 -1.791,-4 -4,-4z" fill="url(#color-1)"></path><path d="M18,1.5c1.93,0 3.5,1.57 3.5,3.5c0,1.93 -1.57,3.5 -3.5,3.5c-0.06,0 -0.117,-0.009 -0.174,-0.017c-0.05,-0.007 -0.101,-0.014 -0.152,-0.018l-0.286,-0.027l-0.168,0.234l-2.17,3.038l-0.207,0.29l0.208,0.291l2.17,3.037l0.167,0.234l0.286,-0.027c0.051,-0.005 0.101,-0.012 0.152,-0.018c0.057,-0.008 0.114,-0.017 0.174,-0.017c1.93,0 3.5,1.57 3.5,3.5c0,1.93 -1.57,3.5 -3.5,3.5c-1.93,0 -3.5,-1.57 -3.5,-3.5c0,-0.491 0.108,-0.976 0.32,-1.442l0.119,-0.263l-0.168,-0.235l-2.393,-3.351l-0.15,-0.209h-0.257h-3.526h-0.287l-0.145,0.248c-0.638,1.097 -1.765,1.752 -3.013,1.752c-1.93,0 -3.5,-1.57 -3.5,-3.5c0,-1.93 1.57,-3.5 3.5,-3.5c1.248,0 2.375,0.655 3.013,1.751l0.145,0.249h0.288h3.526h0.257l0.15,-0.209l2.394,-3.351l0.168,-0.235l-0.121,-0.263c-0.212,-0.466 -0.32,-0.951 -0.32,-1.442c0,-1.93 1.57,-3.5 3.5,-3.5M18,1c-2.209,0 -4,1.791 -4,4c0,0.59 0.135,1.145 0.364,1.649l-2.393,3.351h-3.526c-0.693,-1.191 -1.968,-2 -3.445,-2c-2.209,0 -4,1.791 -4,4c0,2.209 1.791,4 4,4c1.477,0 2.752,-0.809 3.445,-2v0v0v0v0v0h3.526l2.393,3.351c-0.229,0.504 -0.364,1.059 -0.364,1.649c0,2.209 1.791,4 4,4c2.209,0 4,-1.791 4,-4c0,-2.209 -1.791,-4 -4,-4c-0.128,0 -0.248,0.026 -0.373,0.038l-2.169,-3.038l2.17,-3.038v0v0v0c0.124,0.012 0.244,0.038 0.372,0.038c2.209,0 4,-1.791 4,-4c0,-2.209 -1.791,-4 -4,-4z" fill="url(#color-2)"></path><path d="M5,8c-2.209,0 -4,1.791 -4,4c0,2.209 1.791,4 4,4c2.209,0 4,-1.791 4,-4c0,-2.209 -1.791,-4 -4,-4z" fill="url(#color-3)"></path><path d="M22,19c0,-2.209 -1.791,-4 -4,-4c-2.209,0 -4,1.791 -4,4c0,2.209 1.791,4 4,4c2.209,0 4,-1.791 4,-4z" fill="url(#color-4)"></path><path d="M22,5c0,-2.209 -1.791,-4 -4,-4c-2.209,0 -4,1.791 -4,4c0,2.209 1.791,4 4,4c2.209,0 4,-1.791 4,-4z" fill="url(#color-5)"></path></g></g></svg>